<?xml version="1.0" standalone="no"?>
<!DOCTYPE svg PUBLIC "-//W3C//DTD SVG 20010904//EN"
 "http://www.w3.org/TR/2001/REC-SVG-20010904/DTD/svg10.dtd">
<svg version="1.0" xmlns="http://www.w3.org/2000/svg"
 width="264.000000pt" height="392.000000pt" viewBox="0 0 264.000000 392.000000"
 preserveAspectRatio="xMidYMid meet">

<g transform="translate(0.000000,392.000000) scale(0.100000,-0.100000)"
fill="#000000" stroke="none">
<path d="M1348 3860 c-4 -35 -16 -67 -42 -108 -37 -57 -79 -139 -91 -177 -6
-18 -9 -16 -24 14 -18 33 -18 33 -25 10 -4 -13 -9 -73 -12 -134 -7 -138 -8
-143 -35 -119 -11 10 -30 35 -41 56 -12 21 -25 38 -30 38 -17 0 -40 -64 -36
-101 2 -22 0 -39 -4 -39 -3 0 -21 17 -38 38 l-32 37 5 -71 c5 -59 17 -102 45
-156 2 -5 -8 -8 -22 -8 -33 0 -33 -10 -1 -40 14 -13 25 -28 25 -34 0 -6 -17
-27 -37 -46 -113 -109 -100 -264 32 -390 45 -42 54 -55 44 -66 -6 -8 -9 -14
-7 -14 2 0 69 73 149 161 79 89 154 165 167 170 27 10 67 -3 76 -26 18 -47 13
-55 -119 -210 -33 -38 -79 -93 -102 -121 l-43 -51 -51 9 c-73 13 -102 26 -93
40 5 10 4 10 -6 1 -16 -15 -107 28 -187 88 l-53 39 -6 -25 c-8 -33 0 -87 20
-127 20 -39 20 -38 -6 -38 -74 1 -215 42 -335 99 -127 60 -219 90 -342 111
-75 13 -81 9 -81 -58 0 -45 18 -89 44 -111 9 -8 16 -28 16 -45 0 -36 8 -50 33
-59 9 -3 17 -15 17 -26 0 -11 8 -26 19 -33 10 -7 22 -28 25 -45 8 -36 39 -63
71 -63 14 0 25 -12 36 -39 21 -50 55 -71 113 -73 33 0 46 -5 46 -15 0 -22 56
-73 79 -73 12 0 30 -9 42 -21 17 -17 18 -23 7 -37 -11 -15 -11 -15 2 -5 12 9
19 8 34 -3 11 -8 30 -14 43 -14 13 0 23 -6 23 -14 0 -7 7 -19 15 -26 12 -10 9
-20 -24 -68 -43 -64 -90 -160 -117 -242 -14 -39 -19 -84 -19 -156 0 -98 1
-103 42 -185 44 -90 119 -175 220 -251 40 -31 51 -44 41 -50 -8 -6 -5 -7 11
-3 15 5 21 3 17 -3 -3 -6 10 -16 31 -22 39 -13 63 -34 63 -57 0 -7 -7 -13 -15
-13 -10 0 -15 -10 -15 -29 0 -51 -9 -61 -52 -61 -32 0 -39 -3 -34 -15 3 -8 9
-22 12 -30 5 -12 -4 -15 -45 -15 -28 0 -51 -2 -51 -5 0 -3 7 -21 14 -40 l15
-35 538 0 538 0 23 40 23 40 -71 0 c-38 0 -70 2 -70 5 0 3 7 17 16 30 l16 25
-46 0 -46 0 0 84 0 84 48 20 c26 11 57 23 70 27 12 3 19 11 16 17 -4 6 2 8 17
3 16 -4 19 -3 11 3 -10 7 -4 16 25 37 21 15 74 64 119 109 136 137 183 272
151 431 -9 44 -21 81 -26 83 -6 2 -7 10 -4 19 4 10 2 14 -4 10 -11 -7 -38 42
-28 51 3 3 5 -1 5 -8 0 -7 2 -11 5 -8 10 9 -7 38 -18 31 -6 -3 -7 -1 -3 5 4 6
0 25 -9 42 -13 24 -13 33 -3 50 7 11 21 20 30 20 9 0 21 7 26 15 4 9 24 23 42
33 19 9 39 26 45 37 5 11 22 32 38 47 15 15 27 36 27 48 0 13 7 20 18 20 22 0
42 19 42 38 0 8 11 23 25 34 14 11 25 26 25 33 0 8 14 28 30 45 17 18 33 45
37 60 3 16 13 32 23 35 18 6 40 53 40 86 0 10 15 25 37 36 59 29 76 60 81 155
l5 82 -24 -16 c-62 -44 -162 -98 -240 -131 -82 -35 -275 -88 -367 -101 l-43
-6 6 47 c4 27 9 57 12 67 5 19 5 19 -19 0 -112 -87 -138 -105 -175 -124 -49
-25 -73 -23 -88 6 -15 30 -75 79 -75 62 -1 -8 -6 -6 -15 6 -15 20 -15 20 -30
0 -15 -19 -15 -18 -36 6 -11 14 -51 60 -87 103 -37 43 -68 82 -70 86 -1 3 18
27 43 51 l46 45 62 -70 c34 -38 80 -89 102 -113 l40 -44 56 44 c165 127 181
241 55 376 -25 27 -46 52 -46 56 0 4 10 20 22 36 18 24 19 32 8 45 -11 13 -10
18 3 33 38 42 56 122 41 180 l-7 23 -28 -27 -29 -28 0 55 c0 32 -6 63 -14 75
-14 18 -16 17 -50 -21 l-35 -40 -1 50 c0 28 -3 67 -6 88 -6 34 -8 36 -23 23
-16 -14 -18 -11 -30 42 -7 31 -20 75 -30 97 l-18 40 -18 -35 -19 -35 -9 45
c-19 104 -40 155 -77 192 -52 52 -66 50 -72 -12z m220 -785 c6 -3 12 -8 12
-13 0 -5 -75 -9 -167 -8 -93 1 -192 -3 -220 -7 -43 -6 -53 -5 -53 7 0 14 29
19 170 29 50 4 238 -2 258 -8z m-155 -157 c14 -13 67 -70 118 -128 140 -157
135 -150 117 -150 -9 0 -71 63 -138 140 -102 117 -127 140 -150 140 -23 0 -47
-23 -150 -142 -157 -183 -147 -172 -154 -160 -3 5 55 80 130 166 125 144 138
156 169 156 21 0 43 -8 58 -22z m-1061 -382 c264 -106 323 -120 477 -117 l43
1 -18 28 c-33 50 -54 97 -45 100 5 2 27 -6 48 -16 74 -38 197 -74 294 -86 131
-17 150 -36 113 -108 -24 -47 -22 -142 4 -201 l21 -48 -22 7 c-60 18 -87 73
-87 178 0 68 -2 76 -26 95 -28 22 -63 36 -70 28 -8 -8 21 -59 45 -81 17 -16
21 -31 21 -83 0 -112 31 -153 132 -174 29 -6 60 -17 68 -25 8 -7 35 -21 59
-31 l44 -19 -25 -29 -25 -28 -42 16 c-23 9 -44 17 -46 17 -3 0 7 -18 21 -40
l27 -41 -20 -27 c-38 -52 -38 -55 -9 -48 14 3 36 9 49 12 19 4 28 -2 48 -30
13 -20 27 -36 32 -36 4 0 7 20 7 44 0 40 3 45 31 55 72 25 82 11 53 -72 -10
-31 -30 -59 -57 -82 -42 -37 -215 -130 -224 -122 -2 3 7 26 22 52 15 25 24 49
21 53 -12 12 -40 -14 -79 -72 -21 -32 -44 -56 -50 -53 -55 20 -57 20 -57 -15
l0 -33 -20 25 c-17 21 -21 23 -30 10 -5 -8 -10 -20 -10 -26 0 -16 -40 -55 -51
-49 -16 10 -10 61 11 88 11 14 20 32 20 40 0 20 20 33 29 20 3 -6 18 7 34 28
l27 39 -25 -6 c-20 -5 -25 -2 -25 12 -1 35 -66 -52 -96 -128 -31 -77 -50 -94
-60 -54 -9 37 38 116 123 206 l72 77 -45 -15 c-35 -12 -48 -12 -57 -3 -9 10
-5 18 18 37 23 18 42 24 83 24 43 0 58 5 79 26 32 32 26 38 -19 20 -20 -9 -38
-12 -42 -9 -11 11 36 53 59 53 29 0 60 24 50 39 -5 9 -10 10 -18 2 -15 -15
-57 -14 -57 1 0 6 7 20 17 30 9 10 11 18 6 18 -6 0 -16 -7 -23 -15 -14 -17
-46 -20 -54 -6 -10 16 5 41 24 41 22 0 35 16 20 25 -5 3 -20 -1 -32 -9 -33
-21 -88 -25 -88 -6 0 5 17 14 39 20 42 11 76 40 47 40 -8 0 -34 -7 -56 -16
-40 -16 -70 -14 -70 6 0 6 11 15 25 20 14 6 37 15 51 20 14 6 22 15 19 20 -4
6 -13 7 -24 1 -10 -6 -41 -13 -70 -17 -48 -6 -53 -5 -49 12 2 10 17 23 33 28
67 22 96 36 90 45 -3 6 -23 2 -48 -9 -45 -21 -102 -26 -112 -11 -8 14 28 31
64 31 33 0 81 19 81 32 0 11 -2 11 -91 -13 -62 -18 -81 -19 -93 -10 -27 23 -7
39 57 46 168 17 181 30 25 26 -107 -3 -126 5 -107 41 8 14 22 18 64 18 30 0
55 5 55 10 0 17 -106 12 -138 -7 -28 -16 -36 -16 -129 -1 -109 18 -149 15
-164 -13 -14 -27 -51 -24 -123 10 -70 33 -146 51 -215 51 -32 0 -56 6 -71 18
-22 17 -22 19 -4 36 23 23 57 18 231 -34 120 -37 221 -52 197 -32 -5 5 -39 16
-77 25 -37 9 -110 32 -162 52 -72 27 -109 35 -160 35 -52 0 -69 4 -85 20 -21
21 -23 31 -13 69 5 20 10 22 39 18 19 -3 129 -44 246 -91z m2252 57 c-28 -119
-109 -160 -334 -173 -155 -9 -273 -35 -386 -85 -80 -35 -119 -75 -150 -156
-25 -66 -77 -129 -107 -129 -7 0 -22 -3 -35 -7 -23 -5 -22 -4 9 40 23 33 32
57 32 85 0 36 3 41 28 46 22 4 29 11 29 30 0 28 16 43 50 48 22 3 25 8 25 47
0 43 1 44 53 67 29 13 67 33 84 45 l31 22 -7 -36 c-4 -21 -3 -37 2 -37 5 0 65
11 133 25 168 34 295 76 425 140 60 29 112 54 117 54 4 1 4 -11 1 -26z m-984
-145 c33 -11 40 -17 40 -38 0 -14 -7 -34 -15 -44 -8 -11 -15 -28 -15 -37 0
-10 -12 -21 -30 -27 -30 -11 -34 -19 -45 -103 -6 -46 -61 -152 -80 -153 -14
-1 -61 71 -91 141 l-27 62 27 31 c14 17 26 38 26 46 0 8 4 14 9 14 5 0 18 17
28 38 12 25 32 44 63 60 51 26 57 26 110 10z m850 -52 c0 -8 -8 -24 -19 -37
-16 -20 -29 -23 -110 -27 -60 -3 -96 -1 -104 7 -16 16 -6 21 80 47 91 27 153
31 153 10z m-2081 -45 c43 -16 103 -32 132 -36 61 -8 89 -20 89 -38 0 -10 -24
-11 -107 -4 -60 4 -143 5 -186 2 -44 -3 -85 -1 -96 4 -23 13 -34 52 -25 87 7
25 9 26 60 20 30 -3 89 -19 133 -35z m1812 20 c-13 -24 -110 -39 -122 -19 -18
28 -4 34 84 37 44 1 47 -1 38 -18z m-1413 -41 c22 -8 32 -18 30 -29 -5 -23
-162 -17 -197 8 -51 36 -40 44 50 38 46 -3 99 -11 117 -17z m1236 12 c3 -5 2
-18 -1 -30 -4 -18 -13 -22 -49 -22 -43 0 -58 -12 -29 -24 35 -13 11 -26 -47
-27 -63 0 -62 -5 7 -25 40 -12 34 -28 -12 -34 -32 -5 -35 -7 -16 -13 11 -4 27
-15 35 -24 12 -15 7 -16 -51 -10 l-63 5 36 -24 c48 -33 47 -48 -4 -40 -37 6
-54 -4 -30 -19 6 -3 10 -13 10 -22 0 -16 -23 -15 -63 2 -15 6 -16 4 -7 -19 12
-32 -6 -44 -40 -26 -20 11 -21 10 -10 -10 6 -12 9 -24 6 -28 -4 -3 8 -21 26
-39 17 -18 29 -36 25 -39 -6 -6 -62 25 -114 62 -13 9 -23 13 -23 8 0 -14 13
-29 40 -47 13 -9 18 -17 11 -17 -8 0 -23 -7 -33 -16 -24 -22 -45 -5 -55 45
l-7 36 -6 -30 c-11 -61 -66 -36 -76 36 l-6 46 95 22 c125 29 155 50 177 123
34 110 77 156 178 189 64 20 88 23 96 11z m152 -43 c11 -19 -12 -31 -75 -36
-64 -6 -72 -1 -44 29 18 20 107 26 119 7z m234 -7 c0 -23 -30 -32 -107 -32
-62 0 -83 3 -83 13 0 8 3 17 7 20 9 10 183 9 183 -1z m-1591 -31 c14 -4 26
-12 29 -19 6 -18 -142 -17 -157 2 -9 11 -9 15 1 19 18 8 98 6 127 -2z m-151
-44 c12 -11 22 -23 22 -27 0 -3 -37 -6 -82 -6 -46 0 -108 -6 -138 -13 -95 -24
-158 2 -143 59 l6 22 156 -7 c138 -6 159 -9 179 -28z m1479 11 c-4 -13 -97
-20 -124 -10 -34 11 -6 22 58 22 52 0 70 -3 66 -12z m203 -7 c0 -21 -30 -31
-97 -31 -40 0 -73 3 -73 8 1 18 17 30 45 34 42 4 125 -3 125 -11z m-1450 -36
l21 -22 -62 -6 c-74 -6 -91 -1 -87 27 6 39 91 41 128 1z m1196 -8 c4 -4 1 -13
-6 -22 -8 -10 -31 -15 -70 -15 -65 0 -74 5 -59 32 9 18 19 20 70 16 32 -2 62
-7 65 -11z m-1389 -38 c17 -6 37 -16 43 -24 9 -11 3 -15 -37 -19 -26 -4 -68
-11 -93 -17 -85 -22 -100 -22 -120 -4 -25 22 -25 37 -2 58 28 26 133 29 209 6z
m1581 4 c-3 -15 -18 -19 -96 -23 -50 -3 -92 -4 -92 -2 0 1 6 11 12 22 11 17
24 20 96 20 74 0 83 -2 80 -17z m-1363 -16 c23 -18 10 -26 -55 -34 -46 -5 -50
-4 -50 15 0 31 71 43 105 19z m1114 -14 c13 -11 -21 -24 -55 -21 -27 2 -40 8
-42 20 -3 16 2 17 45 11 26 -3 50 -8 52 -10z m175 -32 c4 -5 3 -17 0 -26 -5
-12 -14 -15 -33 -11 -14 3 -50 9 -78 12 -47 6 -51 8 -35 20 19 15 138 19 146
5z m-1424 -16 c39 -20 38 -35 -3 -35 -19 0 -67 -11 -107 -25 -40 -14 -75 -25
-77 -25 -3 0 -3 15 -1 33 3 29 8 34 53 49 63 21 98 22 135 3z m189 6 c22 -14
-31 -43 -71 -39 -36 3 -52 33 -21 41 31 8 77 7 92 -2z m980 -2 c39 -14 35 -35
-5 -31 -44 4 -54 10 -48 27 7 18 12 18 53 4z m-31 -51 c11 -9 10 -14 -2 -26
-16 -16 -16 -16 -74 14 -1 1 0 9 4 18 7 19 46 15 72 -6z m176 7 c70 -17 86
-29 65 -50 -12 -13 -20 -13 -64 0 -28 8 -63 20 -79 27 -27 11 -27 12 -10 25
21 16 15 16 88 -2z m-1069 -16 c10 -15 -25 -38 -58 -39 -31 0 -48 27 -26 41
20 12 76 11 84 -2z m-146 -21 c20 -14 17 -17 -63 -47 -96 -38 -120 -37 -124 1
-3 28 12 41 67 59 35 11 95 4 120 -13z m978 -18 c2 0 3 -7 3 -15 0 -19 -46
-19 -79 -1 -22 12 -23 14 -6 23 12 7 30 7 49 2 17 -5 32 -9 33 -9z m162 -1
c58 -14 78 -31 58 -47 -11 -9 -27 -8 -68 4 -80 24 -93 32 -78 50 7 8 19 12 27
9 8 -3 35 -10 61 -16z m-925 2 c6 -10 -37 -31 -64 -31 -11 0 -20 4 -20 10 0
22 72 41 84 21z m697 -39 c15 -13 20 -25 16 -37 -7 -16 -9 -16 -30 -1 -12 9
-32 21 -45 26 -13 6 -20 14 -17 20 10 16 51 12 76 -8z m-851 -1 c0 -16 -114
-67 -142 -63 -32 4 -35 13 -10 35 30 27 152 50 152 28z m178 -16 c-13 -28 -45
-33 -55 -9 -7 19 13 34 44 34 20 0 21 -2 11 -25z m902 -37 c0 -24 -33 -23 -87
1 -32 15 -40 24 -37 38 5 19 7 19 65 -1 42 -15 59 -26 59 -38z m-1000 17 c0
-2 -13 -11 -30 -20 -16 -8 -44 -29 -61 -46 -36 -35 -53 -34 -57 4 -3 24 3 30
40 47 39 18 108 27 108 15z m866 -21 c23 -11 34 -23 32 -33 -5 -20 -42 -17
-76 5 -19 12 -21 18 -11 30 14 17 14 17 55 -2z m-811 -14 c3 -5 -2 -10 -12
-10 -10 0 -35 -11 -56 -25 -29 -20 -37 -22 -37 -10 0 39 86 76 105 45z m759
-31 c16 -23 11 -49 -8 -49 -14 0 -56 45 -56 60 0 19 49 10 64 -11z m-150 -21
c21 -30 20 -48 -2 -48 -15 0 -52 45 -52 64 0 16 41 3 54 -16z m69 -2 c30 -45
-11 -51 -43 -6 l-21 30 24 0 c15 0 31 -9 40 -24z m-130 -11 c18 -26 16 -45 -6
-45 -16 1 -49 48 -42 60 10 17 29 11 48 -15z m-593 -71 c0 -3 -17 -26 -37 -51
-21 -25 -54 -73 -74 -107 -35 -62 -69 -85 -69 -48 0 33 139 212 166 212 8 0
14 -3 14 -6z m421 -156 c12 -22 -11 -24 -60 -7 -38 13 -39 19 -3 40 29 17 38
13 63 -33z m-159 -98 c6 0 16 8 23 17 11 15 13 15 25 -6 10 -19 9 -26 -4 -39
-37 -38 -103 32 -81 85 6 14 10 11 17 -19 6 -21 15 -38 20 -38z m-679 19 c60
-56 167 -88 327 -96 188 -9 219 -13 233 -33 8 -11 28 -20 52 -22 34 -3 40 -6
39 -25 -1 -28 6 -29 39 -3 14 11 33 20 42 20 12 0 16 -6 12 -20 -7 -29 11 -25
43 10 40 42 90 39 90 -6 0 -39 32 -27 49 19 7 17 18 27 31 27 20 0 24 -9 21
-42 -1 -10 3 -18 8 -18 16 0 51 38 51 55 0 12 14 15 63 15 97 1 216 26 281 60
72 37 84 37 96 5 18 -48 -39 -100 -145 -132 -55 -16 -106 -18 -585 -18 -482 0
-530 2 -585 18 -79 25 -135 58 -184 112 -46 50 -56 95 -21 95 12 0 31 -9 43
-21z m1147 -239 c0 -7 -152 -10 -435 -10 -283 0 -435 3 -435 10 0 7 152 10
435 10 283 0 435 -3 435 -10z m-767 -62 c-11 -13 -25 -32 -31 -43 -10 -19 -11
-19 -18 -2 -8 21 30 67 54 67 12 0 11 -5 -5 -22z m237 -8 c42 -32 26 -48 -134
-123 -80 -37 -94 -54 -80 -94 8 -23 23 -33 94 -58 161 -58 179 -83 76 -106
-42 -9 -61 -9 -91 1 -43 14 -110 71 -131 111 -28 55 -11 183 31 229 52 57 184
80 235 40z m240 -20 c0 -16 -4 -30 -10 -30 -5 0 -37 -26 -70 -59 l-60 -59
-130 -3 c-138 -4 -166 6 -81 28 72 18 138 54 196 107 46 41 55 45 103 46 51 0
52 0 52 -30z m190 -15 c0 -55 -43 -109 -98 -125 -46 -12 -162 -13 -162 -1 0
12 49 51 65 51 22 0 47 38 52 79 l6 41 68 0 69 0 0 -45z m20 -154 c0 -48 -13
-55 -53 -28 l-37 25 33 25 c37 29 57 21 57 -22z m-304 -80 c23 -25 53 -53 68
-60 19 -10 26 -22 26 -43 0 -27 -1 -28 -56 -28 -52 0 -60 3 -92 36 -50 51
-117 92 -182 110 -81 22 -82 23 -75 33 3 6 58 8 137 4 l132 -5 42 -47z m200
30 c57 -26 84 -64 84 -117 l0 -44 -69 0 -68 0 -7 38 c-6 41 -21 60 -75 95 -57
37 -51 47 26 47 44 0 82 -7 109 -19z m-556 -144 c8 -3 -6 -6 -32 -6 -45 -1
-48 1 -48 25 l0 26 33 -20 c17 -11 39 -22 47 -25z m660 -51 c0 -2 -3 -11 -6
-20 -5 -14 -49 -16 -389 -16 -369 0 -383 1 -400 20 -18 20 -17 20 388 20 224
0 407 -2 407 -4z m118 -78 c-4 -10 -113 -14 -491 -16 -429 -2 -487 0 -487 13
0 13 60 15 491 15 388 0 490 -3 487 -12z"/>
<path d="M1500 2395 c-13 -14 -22 -27 -19 -29 2 -2 35 4 73 14 62 15 67 19 49
29 -36 19 -77 13 -103 -14z"/>
<path d="M1310 2831 c-20 -38 21 -82 59 -62 44 24 31 81 -19 81 -19 0 -33 -7
-40 -19z m60 -7 c11 -12 10 -18 -3 -32 -16 -15 -18 -15 -34 0 -13 14 -14 20
-3 32 7 9 16 16 20 16 4 0 13 -7 20 -16z"/>
<path d="M1695 2530 c10 -11 20 -20 23 -20 3 0 -3 9 -13 20 -10 11 -20 20 -23
20 -3 0 3 -9 13 -20z"/>
<path d="M1745 2470 c10 -11 20 -20 23 -20 3 0 -3 9 -13 20 -10 11 -20 20 -23
20 -3 0 3 -9 13 -20z"/>
<path d="M520 1910 c-6 -11 -8 -20 -6 -20 3 0 10 9 16 20 6 11 8 20 6 20 -3 0
-10 -9 -16 -20z"/>
<path d="M490 1860 c-6 -11 -8 -20 -6 -20 3 0 10 9 16 20 6 11 8 20 6 20 -3 0
-10 -9 -16 -20z"/>
<path d="M2200 1831 c0 -6 4 -13 10 -16 6 -3 7 1 4 9 -7 18 -14 21 -14 7z"/>
<path d="M2240 1745 c0 -5 5 -17 10 -25 5 -8 10 -10 10 -5 0 6 -5 17 -10 25
-5 8 -10 11 -10 5z"/>
<path d="M391 1649 c-6 -18 -11 -37 -10 -43 0 -6 7 7 15 28 8 22 12 41 10 43
-2 2 -9 -10 -15 -28z"/>
<path d="M2281 1614 c0 -11 3 -14 6 -6 3 7 2 16 -1 19 -3 4 -6 -2 -5 -13z"/>
<path d="M371 1574 c0 -11 3 -14 6 -6 3 7 2 16 -1 19 -3 4 -6 -2 -5 -13z"/>
<path d="M2292 1565 c0 -16 2 -22 5 -12 2 9 2 23 0 30 -3 6 -5 -1 -5 -18z"/>
<path d="M362 1515 c0 -16 2 -22 5 -12 2 9 2 23 0 30 -3 6 -5 -1 -5 -18z"/>
<path d="M2292 1435 c0 -16 2 -22 5 -12 2 9 2 23 0 30 -3 6 -5 -1 -5 -18z"/>
<path d="M362 1385 c0 -16 2 -22 5 -12 2 9 2 23 0 30 -3 6 -5 -1 -5 -18z"/>
<path d="M2266 1345 c-9 -26 -7 -32 5 -12 6 10 9 21 6 23 -2 3 -7 -2 -11 -11z"/>
<path d="M390 1284 c0 -6 7 -19 16 -30 14 -18 14 -18 3 6 -14 31 -19 36 -19
24z"/>
<path d="M485 1150 c21 -22 41 -40 44 -40 3 0 -13 18 -34 40 -21 22 -41 40
-44 40 -3 0 13 -18 34 -40z"/>
<path d="M64 1060 c18 -137 91 -324 170 -434 83 -117 241 -249 384 -320 57
-29 59 -33 37 -62 -8 -10 -15 -24 -15 -30 -1 -34 308 -160 461 -189 171 -32
394 -12 571 51 59 22 262 117 277 130 2 1 -7 17 -19 34 -16 22 -19 34 -11 39
397 225 526 393 606 799 l7 32 -156 0 -156 0 0 -24 c0 -47 -50 -183 -90 -245
-79 -122 -199 -216 -410 -321 l-120 -61 36 -47 36 -47 -59 -26 c-183 -83 -454
-84 -635 -2 -32 14 -58 29 -58 33 0 4 14 24 30 45 16 21 30 41 29 44 0 3 -58
35 -130 69 -280 137 -424 290 -475 506 l-18 76 -149 0 -150 0 7 -50z m2374 10
c49 0 52 -2 52 -25 0 -24 -2 -25 -69 -25 -60 0 -69 -3 -74 -19 -4 -18 14 -36
90 -84 9 -6 12 2 11 27 -1 20 6 41 15 51 10 10 17 12 17 5 0 -24 -60 -191 -89
-248 -31 -61 -135 -205 -168 -233 -105 -87 -204 -153 -279 -184 l-34 -14 -42
57 c-51 69 -50 69 -110 77 -26 4 -48 10 -48 13 0 4 32 20 70 35 231 94 403
277 480 511 l22 68 52 -6 c28 -3 75 -6 104 -6z m-2112 -17 c83 -269 220 -426
476 -548 49 -23 86 -45 81 -48 -4 -2 -27 -8 -49 -12 -43 -7 -70 -30 -114 -95
-13 -19 -25 -36 -26 -38 -1 -2 -31 11 -65 29 -191 96 -330 232 -419 409 -37
75 -82 202 -95 272 l-7 37 48 4 c129 10 164 8 170 -10z m2094 -73 c0 -5 -2
-10 -4 -10 -3 0 -8 5 -11 10 -3 6 -1 10 4 10 6 0 11 -4 11 -10z m-1525 -580
c-3 -5 -10 -10 -16 -10 -5 0 -9 5 -9 10 0 6 7 10 16 10 8 0 12 -4 9 -10z m830
0 c3 -5 2 -10 -4 -10 -5 0 -13 5 -16 10 -3 6 -2 10 4 10 5 0 13 -4 16 -10z
m-687 -124 c119 -37 212 -49 327 -43 141 9 286 53 393 121 l39 24 46 -78 c33
-58 42 -81 34 -88 -23 -19 -133 -70 -205 -96 -144 -51 -205 -61 -382 -60 -144
1 -177 4 -262 27 -111 29 -318 114 -325 133 -3 7 18 46 47 86 l51 74 77 -37
c43 -20 115 -48 160 -63z"/>
<path d="M2315 930 c-4 -6 1 -20 11 -31 16 -18 16 -19 -9 -19 -16 0 -27 -6
-27 -14 0 -14 71 -66 90 -66 16 0 12 22 -7 36 -17 12 -16 13 5 14 24 0 28 10
11 27 -7 7 -3 9 15 6 19 -4 26 -1 26 10 0 10 -15 20 -41 27 -22 6 -46 13 -54
16 -7 3 -16 0 -20 -6z"/>
<path d="M2267 833 c-4 -3 0 -14 9 -24 14 -16 13 -18 -15 -24 -28 -6 -71 -46
-71 -66 0 -4 21 -22 46 -39 43 -31 46 -31 59 -13 8 10 15 22 15 27 0 5 8 15
18 22 16 12 16 14 -3 28 -19 15 -19 15 13 22 17 3 32 10 32 14 0 7 -82 60 -93
60 -2 0 -7 -3 -10 -7z m7 -96 c15 -11 17 -18 8 -33 -11 -18 -11 -18 -12 5 0
18 -4 22 -19 18 -14 -3 -18 -1 -14 9 6 17 14 18 37 1z"/>
<path d="M2145 690 c-4 -6 -1 -17 5 -25 10 -12 9 -15 -9 -15 -19 0 -21 -4 -16
-22 6 -19 5 -21 -6 -10 -7 6 -19 12 -26 12 -25 0 -12 -25 26 -52 50 -35 65
-36 58 -2 -4 23 -2 25 19 20 37 -10 37 10 2 58 -35 47 -43 53 -53 36z"/>
<path d="M2022 584 l-23 -15 33 -42 33 -41 -39 26 c-58 40 -78 25 -55 -41 13
-38 4 -55 -10 -18 -14 36 -26 40 -61 22 l-31 -16 27 -49 c15 -28 33 -50 40
-50 7 0 33 20 58 45 26 25 52 45 60 45 14 0 66 68 66 87 0 19 -41 63 -59 63
-9 0 -27 -7 -39 -16z m57 -40 c3 -16 1 -17 -13 -5 -19 16 -21 34 -3 29 6 -3
14 -13 16 -24z m-64 -64 c3 -5 1 -10 -4 -10 -6 0 -11 5 -11 10 0 6 2 10 4 10
3 0 8 -4 11 -10z m-85 -30 c0 -5 -5 -10 -11 -10 -5 0 -7 5 -4 10 3 6 8 10 11
10 2 0 4 -4 4 -10z"/>
<path d="M193 982 c-47 -18 -60 -48 -18 -40 25 5 34 -5 15 -17 -15 -9 -13 -48
3 -42 86 34 95 40 90 53 -3 10 -13 12 -26 8 -16 -5 -19 -3 -14 10 4 9 10 23
13 31 8 19 -9 18 -63 -3z"/>
<path d="M242 862 c-43 -42 -50 -72 -12 -52 10 5 37 10 59 10 44 0 53 13 22
31 -10 7 -16 20 -14 29 8 32 -12 26 -55 -18z"/>
<path d="M282 800 c-44 -10 -47 -15 -24 -36 11 -11 22 -32 26 -47 4 -15 11
-25 16 -22 5 3 11 1 15 -5 4 -7 13 -7 26 1 19 10 20 8 18 -18 -4 -38 5 -39 51
-6 39 28 52 53 27 53 -7 0 -19 -6 -26 -12 -11 -11 -12 -6 -7 25 8 42 0 46 -38
16 -30 -24 -36 -11 -6 16 15 14 17 21 9 32 -12 14 -36 15 -87 3z"/>
<path d="M425 668 c-2 -7 -5 -20 -8 -28 -2 -8 -12 -15 -22 -15 -26 0 -30 -22
-6 -34 28 -15 51 -3 58 30 4 23 8 27 19 18 11 -9 15 -8 20 4 3 9 3 21 -1 27
-9 14 -55 13 -60 -2z"/>
<path d="M463 582 c-29 -14 -53 -30 -53 -34 0 -5 11 -13 25 -18 14 -5 28 -17
32 -26 7 -19 50 -37 66 -27 7 4 22 6 35 4 51 -6 68 40 29 77 l-23 22 -33 -45
c-18 -25 -34 -45 -37 -45 -2 0 3 17 12 38 9 20 18 42 20 48 3 6 -1 16 -8 21
-9 8 -28 4 -65 -15z m27 -32 c0 -5 -5 -10 -11 -10 -5 0 -7 5 -4 10 3 6 8 10
11 10 2 0 4 -4 4 -10z m100 -30 c0 -5 -4 -10 -10 -10 -5 0 -10 5 -10 10 0 6 5
10 10 10 6 0 10 -4 10 -10z"/>
<path d="M647 484 c-3 -3 -1 -15 6 -25 16 -25 -14 -59 -36 -41 -20 17 -43 -8
-25 -26 33 -33 98 0 98 49 0 34 -26 60 -43 43z"/>
<path d="M826 302 c-2 -4 -7 -23 -11 -42 -3 -19 -9 -43 -11 -52 -7 -23 14 -23
38 -1 17 15 18 15 18 -10 0 -43 23 -36 53 14 15 27 27 51 27 54 0 13 -30 3
-39 -12 -9 -16 -10 -16 -11 5 0 25 -10 28 -29 10 -11 -11 -13 -9 -8 9 5 21
-17 41 -27 25z"/>
<path d="M1648 268 c-8 -7 -20 -22 -26 -33 -10 -17 -11 -18 -12 -2 0 9 -7 17
-16 17 -12 0 -15 -7 -12 -25 6 -30 5 -30 -28 -9 -13 9 -27 14 -30 11 -3 -2 2
-30 11 -60 12 -42 20 -54 31 -50 9 3 12 12 9 24 -8 23 3 24 31 4 27 -18 35
-10 23 22 -13 34 -12 36 11 13 25 -25 62 -26 83 -2 48 53 -20 133 -75 90z m60
-46 c4 -28 -24 -40 -45 -19 -14 13 -14 19 -3 32 18 22 44 15 48 -13z"/>
<path d="M1005 231 c-3 -5 -1 -12 5 -16 16 -10 12 -42 -6 -49 -9 -4 -22 -2
-29 4 -9 7 -16 6 -24 -4 -10 -12 -8 -17 9 -26 30 -16 60 -9 82 21 15 20 17 30
9 52 -10 27 -34 36 -46 18z"/>
<path d="M1095 190 c-4 -12 -1 -28 6 -36 10 -12 8 -17 -7 -29 -24 -17 -6 -40
24 -31 26 9 35 32 21 57 -7 15 -6 23 6 35 21 21 19 24 -14 24 -21 0 -32 -6
-36 -20z"/>
<path d="M1171 151 c-27 -63 -27 -64 8 -56 17 4 38 1 50 -7 30 -19 34 -6 16
56 -21 73 -44 75 -74 7z"/>
<path d="M1270 140 c0 -47 3 -60 15 -60 9 0 15 9 15 22 l0 21 23 -21 c13 -12
26 -22 30 -22 4 0 7 27 7 60 0 47 -3 60 -15 60 -10 0 -15 -10 -15 -27 l-1 -28
-22 28 c-13 15 -26 27 -30 27 -4 0 -7 -27 -7 -60z"/>
<path d="M1370 153 c0 -61 11 -78 43 -69 33 8 44 36 14 37 -12 0 -16 3 -9 6
18 7 15 31 -5 36 -17 4 -17 5 0 6 31 2 20 31 -13 31 -29 0 -30 -1 -30 -47z"/>
<path d="M540 1106 c0 -2 8 -10 18 -17 15 -13 16 -12 3 4 -13 16 -21 21 -21
13z"/>
<path d="M580 1076 c0 -3 9 -10 20 -16 11 -6 20 -8 20 -6 0 3 -9 10 -20 16
-11 6 -20 8 -20 6z"/>
<path d="M1974 1064 c-18 -14 -18 -14 6 -3 31 14 36 19 24 19 -6 0 -19 -7 -30
-16z"/>
</g>
</svg>
