<?xml version="1.0" standalone="no"?>
<!DOCTYPE svg PUBLIC "-//W3C//DTD SVG 20010904//EN"
 "http://www.w3.org/TR/2001/REC-SVG-20010904/DTD/svg10.dtd">
<svg version="1.0" xmlns="http://www.w3.org/2000/svg"
 width="225.000000pt" height="225.000000pt" viewBox="0 0 225.000000 225.000000"
 preserveAspectRatio="xMidYMid meet">

<g transform="translate(0.000000,225.000000) scale(0.100000,-0.100000)"
fill="#000000" stroke="none">
<path d="M0 1125 l0 -1125 1125 0 1125 0 0 1125 0 1125 -1125 0 -1125 0 0
-1125z m1289 329 c27 -6 31 -11 31 -38 l0 -31 -18 22 c-24 31 -66 39 -97 19
-49 -32 -27 -80 48 -107 70 -25 98 -69 78 -122 -17 -44 -67 -69 -126 -63 -51
6 -75 24 -75 58 0 25 13 23 25 -4 21 -46 101 -48 131 -3 15 23 15 27 0 50 -9
13 -39 34 -66 46 -56 24 -80 51 -80 89 1 31 18 55 56 75 32 17 47 18 93 9z
m-1101 -15 c-16 -9 -18 -27 -18 -144 0 -117 2 -135 18 -144 13 -8 4 -10 -38
-10 -30 0 -49 3 -42 6 17 7 17 274 0 291 -9 9 0 12 43 12 41 -1 50 -3 37 -11z
m227 -59 c34 -21 65 -73 65 -108 0 -117 -145 -182 -229 -103 -61 57 -58 145 5
200 43 38 108 43 159 11z m116 7 c-8 -11 -4 -30 15 -78 15 -35 31 -75 36 -89
9 -24 10 -24 29 19 10 24 19 51 19 61 0 26 -28 87 -42 93 -7 3 9 6 36 6 41 1
47 -1 37 -13 -9 -11 -6 -28 15 -78 14 -34 31 -74 36 -88 9 -23 11 -20 35 45
35 97 38 116 22 126 -10 6 -2 9 24 9 37 0 37 -1 23 -22 -8 -13 -33 -74 -56
-135 -23 -62 -46 -111 -50 -108 -4 3 -18 31 -30 62 -13 32 -26 62 -30 66 -4 4
-19 -24 -35 -63 -16 -39 -32 -67 -35 -63 -4 4 -29 61 -55 126 -26 65 -55 122
-64 127 -12 7 -2 9 33 10 39 0 46 -2 37 -13z m434 -107 c25 -63 52 -120 62
-127 14 -11 10 -13 -30 -13 -37 0 -45 3 -41 15 3 8 1 30 -6 50 -11 33 -14 35
-53 35 -39 0 -43 -3 -59 -40 -15 -37 -15 -41 0 -50 13 -7 8 -9 -22 -10 -29 0
-36 3 -28 13 5 6 29 58 52 114 36 87 40 105 29 119 -11 14 -9 15 20 12 32 -3
34 -6 76 -118z m595 93 c0 -25 -1 -25 -18 -10 -10 10 -31 17 -45 17 l-27 0 0
-114 c0 -82 4 -116 13 -119 6 -3 -10 -6 -38 -6 -39 0 -46 2 -32 10 14 9 17 26
17 119 l0 110 -35 0 c-22 0 -38 -6 -41 -15 -10 -24 -22 -17 -16 10 4 25 5 25
113 25 l109 0 0 -27z m150 -90 c23 -65 50 -124 58 -130 13 -11 8 -13 -34 -13
-30 0 -44 3 -36 9 11 7 11 16 1 50 -12 42 -13 42 -57 39 -41 -3 -45 -6 -60
-42 -13 -32 -13 -39 -1 -47 9 -6 1 -9 -26 -9 -24 0 -35 4 -27 8 7 5 33 57 58
116 43 102 44 109 27 122 -16 12 -15 13 18 14 l36 0 43 -117z m260 90 c0 -25
-1 -25 -18 -10 -10 10 -31 17 -45 17 l-27 0 0 -114 c0 -101 2 -115 18 -119 9
-3 -8 -5 -38 -6 -42 0 -51 2 -37 10 14 9 17 26 17 119 l0 110 -35 0 c-22 0
-38 -6 -44 -17 -9 -15 -10 -14 -11 10 l0 27 110 0 110 0 0 -27z m180 7 c0 -11
-4 -20 -10 -20 -5 0 -10 5 -10 10 0 6 -18 10 -40 10 l-40 0 0 -50 c0 -49 1
-50 29 -50 16 0 37 7 45 16 15 14 16 12 16 -20 l0 -35 -27 15 c-53 27 -63 20
-63 -41 l0 -55 39 0 c24 0 46 7 56 17 16 15 17 15 13 -8 -3 -23 -7 -24 -88
-27 -68 -2 -82 0 -72 10 16 16 17 219 0 236 -9 9 6 12 70 12 75 0 82 -2 82
-20z m-1960 -339 c0 -6 -4 -13 -10 -16 -5 -3 -10 -44 -10 -91 0 -77 2 -87 25
-109 27 -28 37 -30 68 -14 34 18 37 28 37 127 0 75 -3 92 -15 92 -8 0 -15 5
-15 10 0 6 16 10 35 10 34 0 46 -12 25 -25 -6 -3 -10 -48 -10 -100 0 -92 0
-94 -31 -119 -19 -17 -43 -26 -64 -26 -21 0 -45 9 -64 26 -31 26 -31 26 -31
125 0 59 -4 99 -10 99 -5 0 -10 5 -10 10 0 6 18 10 40 10 22 0 40 -4 40 -9z
m306 -91 c48 -55 89 -100 91 -100 2 0 3 36 3 79 0 57 -4 84 -15 95 -22 22 -19
26 20 26 19 0 35 -4 35 -10 0 -5 -4 -10 -10 -10 -6 0 -10 -48 -10 -125 0 -69
-4 -125 -9 -125 -5 0 -49 46 -97 102 l-89 103 -3 -85 c-2 -71 0 -87 14 -97 16
-11 13 -13 -22 -12 -21 0 -33 3 -26 6 19 8 17 222 -3 229 -24 9 -18 24 10 24
19 0 45 -24 111 -100z m334 91 c0 -5 -5 -11 -11 -13 -8 -3 36 -134 59 -172 3
-5 21 31 39 80 21 53 30 90 24 92 -6 2 -11 8 -11 13 0 6 48 8 118 7 116 -3
117 -3 121 -28 3 -24 2 -24 -16 -7 -11 9 -34 17 -51 17 -32 0 -32 -1 -32 -50
0 -50 0 -50 33 -50 18 0 38 5 45 12 9 9 12 4 12 -22 0 -26 -3 -31 -12 -22 -7
7 -27 12 -45 12 l-33 0 0 -55 0 -55 33 0 c18 0 43 7 56 16 22 16 23 15 19 -7
-3 -23 -6 -24 -85 -24 -46 0 -83 3 -83 8 0 4 5 7 10 7 6 0 10 45 10 114 0 88
-3 115 -14 119 -25 10 -42 -15 -91 -135 -26 -65 -50 -118 -54 -118 -3 0 -26
49 -50 110 -51 126 -66 151 -86 144 -12 -5 -15 -29 -15 -120 0 -69 4 -114 10
-114 6 0 10 -3 10 -7 0 -5 -18 -8 -40 -8 -22 0 -40 3 -40 8 0 4 5 7 10 7 6 0
10 45 10 115 0 70 -4 115 -10 115 -5 0 -10 5 -10 10 0 6 35 10 85 10 47 0 85
-4 85 -9z m499 -2 c55 -19 68 -74 25 -108 l-25 -20 45 -66 c45 -63 45 -65 21
-65 -19 0 -32 13 -59 54 -19 30 -44 60 -55 66 -20 10 -21 8 -21 -43 0 -29 5
-58 12 -65 9 -9 3 -12 -30 -12 -39 0 -42 2 -32 19 15 29 13 218 -2 228 -9 5
-3 10 17 14 47 10 70 10 104 -2z m235 5 c9 -4 16 -17 15 -33 l0 -26 -16 23
c-18 26 -73 31 -93 7 -21 -26 -6 -49 49 -76 59 -29 71 -42 71 -80 0 -54 -62
-89 -129 -73 -30 8 -36 14 -39 39 l-2 30 21 -27 c28 -37 81 -39 104 -4 22 33
13 47 -53 81 -52 27 -57 33 -60 66 -3 30 2 41 24 58 26 20 76 27 108 15z m136
-4 c0 -5 -4 -10 -10 -10 -16 0 -13 -227 3 -233 6 -3 -8 -5 -33 -5 -25 0 -39 2
-32 5 15 6 18 233 2 233 -5 0 -10 5 -10 10 0 6 18 10 40 10 22 0 40 -4 40 -10z
m230 -16 c0 -23 -1 -24 -16 -10 -8 9 -29 16 -45 16 l-29 0 0 -110 c0 -89 3
-112 15 -116 28 -11 15 -19 -30 -19 -25 0 -45 3 -45 8 0 4 5 7 10 7 6 0 10 45
10 115 l0 115 -29 0 c-20 0 -35 -8 -45 -22 l-16 -22 0 25 c0 14 3 29 7 32 3 4
53 7 110 7 l103 0 0 -26z m90 16 c0 -5 -5 -10 -11 -10 -12 0 35 -83 50 -88 14
-5 52 74 45 92 -5 12 1 16 25 16 17 0 31 -4 31 -10 0 -5 -4 -10 -9 -10 -4 0
-24 -26 -45 -57 -30 -49 -36 -67 -36 -115 0 -36 5 -58 13 -61 6 -3 -10 -6 -38
-6 -39 0 -46 2 -32 10 13 7 17 23 17 61 0 43 -6 59 -45 115 -25 35 -45 66 -45
68 0 3 18 5 40 5 22 0 40 -4 40 -10z"/>
<path d="M303 1378 c-27 -13 -53 -66 -53 -107 0 -100 80 -154 146 -98 21 18
28 35 32 75 6 64 -11 108 -49 127 -32 17 -46 18 -76 3z"/>
<path d="M881 1315 c-15 -42 -12 -48 23 -43 l25 3 -17 39 -17 38 -14 -37z"/>
<path d="M1628 1311 l-16 -41 29 0 c32 0 33 1 15 49 l-12 34 -16 -42z"/>
<path d="M1260 975 c0 -48 2 -55 20 -55 23 0 60 33 60 55 0 22 -37 55 -60 55
-18 0 -20 -7 -20 -55z"/>
</g>
</svg>
